<?xml version="1.0" encoding="utf-8"?>
<!-- Generator: Adobe Illustrator 19.1.1, SVG Export Plug-In . SVG Version: 6.00 Build 0)  -->
<svg version="1.1" xmlns="http://www.w3.org/2000/svg" xmlns:xlink="http://www.w3.org/1999/xlink" x="0px" y="0px"
	 viewBox="0 0 2532.9 384.2" style="enable-background:new 0 0 2532.9 384.2;" xml:space="preserve">
<style type="text/css">
	.st0{fill:#100C08;}
	.st1{fill:#E30613;}
	.st2{fill:none;stroke:#6CC4D6;stroke-miterlimit:10;}
	.st3{fill:url(#SVGID_1_);}
	.st4{fill:url(#SVGID_2_);stroke:#6CC4D6;stroke-miterlimit:10;}
	.st5{fill:url(#SVGID_3_);}
	.st6{fill:url(#SVGID_4_);stroke:#6CC4D6;stroke-miterlimit:10;}
	.st7{fill:url(#SVGID_5_);}
</style>
<g id="Calque_2">
</g>
<g id="Calque_1">
</g>
<g id="Calque_3">
	<g>
		<path class="st0" d="M487.7,279c-22.2,24.2-47.7,36.4-76.4,36.4c-16.2,0-31-3.5-44.6-10.4c-13.6-7-25.4-16.2-35.4-27.6
			c-10-11.5-17.8-24.4-23.4-38.9c-5.6-14.5-8.4-29.4-8.4-44.6c0-15.9,2.7-31.2,8.3-45.8c5.5-14.6,13.1-27.4,22.9-38.6
			c9.8-11.1,21.4-20,35-26.6c13.6-6.6,28.3-9.9,44.3-9.9c11.7,0,22.3,1.3,31.8,3.9c9.5,2.6,18.1,6.2,25.6,10.8
			c7.5,4.6,14.1,10.1,19.7,16.5c5.6,6.4,10.3,13.4,14.1,21l-18.2,12.1c-7.9-14.8-18.1-25.7-30.6-32.7c-12.6-7-26.8-10.4-42.8-10.4
			c-13.3,0-25.2,2.8-35.9,8.4c-10.7,5.6-19.8,13.1-27.3,22.4c-7.5,9.3-13.3,20-17.3,32c-4,12-6.1,24.4-6.1,37.2
			c0,13.5,2.3,26.3,6.9,38.4c4.6,12.1,10.9,22.7,19,31.8c8.1,9.1,17.6,16.3,28.5,21.7c10.9,5.4,22.7,8.1,35.5,8.1
			c13.7,0,26.7-3.2,39.1-9.6c12.3-6.4,24.2-16.4,35.7-30.1v-40.1h-52.9v-18.2h73.1v117.5h-20.2V279z"/>
		<path class="st0" d="M654.7,315.4c-16.6,0-31.8-3.4-45.6-10.3c-13.8-6.8-25.7-15.9-35.5-27.3c-9.9-11.3-17.5-24.3-22.9-38.9
			c-5.4-14.6-8.1-29.5-8.1-44.8c0-15.9,2.9-31.2,8.6-45.8c5.7-14.6,13.6-27.5,23.7-38.7c10.1-11.2,22-20.2,35.7-26.8
			c13.7-6.6,28.5-9.9,44.5-9.9c16.6,0,31.8,3.5,45.6,10.6c13.8,7.1,25.6,16.3,35.4,27.8c9.8,11.4,17.3,24.4,22.7,38.9
			c5.4,14.5,8.1,29.2,8.1,44.3c0,15.9-2.9,31.2-8.6,45.8c-5.7,14.6-13.6,27.4-23.6,38.6c-10,11.1-21.8,20-35.5,26.6
			C685.5,312.1,670.6,315.4,654.7,315.4z M566.1,194.1c0,13,2.1,25.5,6.4,37.6c4.3,12,10.3,22.7,18.2,32c7.9,9.3,17.2,16.7,28,22.2
			c10.8,5.5,22.8,8.3,36,8.3c13.5,0,25.7-2.9,36.7-8.8c11-5.8,20.3-13.5,28-22.9c7.6-9.4,13.5-20.1,17.7-32
			c4.2-11.9,6.2-24,6.2-36.4c0-13-2.2-25.5-6.6-37.6c-4.4-12-10.5-22.6-18.4-31.8c-7.9-9.2-17.2-16.6-28-22.1
			c-10.8-5.5-22.7-8.2-35.7-8.2c-13.5,0-25.7,2.9-36.7,8.6c-11,5.7-20.3,13.3-28,22.7c-7.6,9.4-13.5,20.1-17.7,32
			C568.2,169.7,566.1,181.8,566.1,194.1z"/>
		<path class="st0" d="M892.8,76.3h22.6l33.7,84.9l34-84.9h22.2l-41.8,102l45.8,108.1l86.6-211.8h25.6l-101,239.1h-20.9l-50.2-118.2
			l-50.5,118.2H878L777.3,74.6h24.9l86.9,211.8l45.5-108.1L892.8,76.3z"/>
		<path class="st0" d="M1244.1,315.4c-16.6,0-31.8-3.4-45.6-10.3c-13.8-6.8-25.7-15.9-35.5-27.3c-9.9-11.3-17.5-24.3-22.9-38.9
			c-5.4-14.6-8.1-29.5-8.1-44.8c0-15.9,2.9-31.2,8.6-45.8c5.7-14.6,13.6-27.5,23.7-38.7c10.1-11.2,22-20.2,35.7-26.8
			c13.7-6.6,28.5-9.9,44.5-9.9c16.6,0,31.8,3.5,45.6,10.6c13.8,7.1,25.6,16.3,35.4,27.8c9.8,11.4,17.3,24.4,22.7,38.9
			c5.4,14.5,8.1,29.2,8.1,44.3c0,15.9-2.9,31.2-8.6,45.8c-5.7,14.6-13.6,27.4-23.6,38.6c-10,11.1-21.8,20-35.5,26.6
			C1274.8,312.1,1260,315.4,1244.1,315.4z M1155.5,194.1c0,13,2.1,25.5,6.4,37.6c4.3,12,10.3,22.7,18.2,32
			c7.9,9.3,17.2,16.7,28,22.2c10.8,5.5,22.8,8.3,36,8.3c13.5,0,25.7-2.9,36.7-8.8c11-5.8,20.3-13.5,28-22.9
			c7.6-9.4,13.5-20.1,17.7-32c4.2-11.9,6.2-24,6.2-36.4c0-13-2.2-25.5-6.6-37.6c-4.4-12-10.5-22.6-18.4-31.8
			c-7.9-9.2-17.2-16.6-28-22.1c-10.8-5.5-22.7-8.2-35.7-8.2c-13.5,0-25.7,2.9-36.7,8.6c-11,5.7-20.3,13.3-28,22.7
			c-7.6,9.4-13.5,20.1-17.7,32C1157.6,169.7,1155.5,181.8,1155.5,194.1z"/>
		<path class="st0" d="M1401.7,313.7V74.6h100.7c10.3,0,19.9,2.2,28.6,6.6c8.8,4.4,16.3,10.1,22.6,17.2c6.3,7.1,11.2,15.1,14.7,24.1
			c3.5,9,5.2,18.1,5.2,27.3c0,8.8-1.3,17.1-3.9,25.1c-2.6,8-6.2,15.2-10.9,21.6c-4.7,6.4-10.3,11.8-16.8,16.2
			c-6.5,4.4-13.8,7.4-21.9,8.9l58.9,92.3h-26.6l-56.6-88.2h-70.7v88.2H1401.7z M1424.9,204.6h78.5c7,0,13.3-1.5,19-4.5
			c5.7-3,10.6-7.1,14.7-12.3c4-5.2,7.2-11,9.4-17.5c2.2-6.5,3.4-13.4,3.4-20.5c0-7.2-1.3-14.1-3.9-20.7c-2.6-6.6-6.1-12.4-10.4-17.3
			c-4.4-4.9-9.5-8.9-15.5-11.8c-6-2.9-12.2-4.4-18.7-4.4h-76.4V204.6z"/>
		<path class="st0" d="M1623.9,313.7V74.9h23.2v138.8l131.7-139.1h25.9l-97.7,105.1l103.1,134h-25.9l-91.6-120.2l-45.5,46.8v73.4
			H1623.9z"/>
		<path class="st1" d="M2024,313.7l-27.6-29c-9.4,10.1-20.3,18-32.7,23.7c-12.3,5.7-25.7,8.6-40.1,8.6c-10.6,0-20.4-1.6-29.6-4.7
			c-9.2-3.1-17.2-7.6-24.1-13.3c-6.9-5.7-12.3-12.6-16.3-20.5c-4-8-6.1-16.8-6.1-26.4c0-8.1,1.3-15.4,4-22.1
			c2.7-6.6,6.4-12.8,11.1-18.5c4.7-5.7,10.1-11.1,16.2-16c6.1-4.9,12.5-9.8,19.2-14.5c-6.1-6.5-11.2-12.3-15.3-17.5
			c-4.2-5.2-7.5-9.9-10.1-14.3c-2.6-4.4-4.4-8.6-5.6-12.6c-1.1-4-1.7-8.2-1.7-12.5c0-7.4,1.5-14.3,4.5-20.7c3-6.4,7.2-12,12.6-16.7
			c5.4-4.7,11.7-8.4,19-11.1c7.3-2.7,15.2-4,23.7-4c7.9,0,15.2,1.1,21.9,3.4c6.7,2.2,12.6,5.4,17.7,9.6c5.1,4.2,9,9.1,12,15
			c2.9,5.8,4.4,12.2,4.4,19.2c0,7-1.4,13.4-4.2,19.2c-2.8,5.8-6.6,11.3-11.3,16.5c-4.7,5.2-10.2,10.1-16.5,14.6
			c-6.3,4.6-13,9.3-20.2,14l67,70c4.5-8.5,8-17.8,10.6-27.8c2.6-10,3.9-20.5,3.9-31.5h19.5c-0.2,13.9-2.1,27.1-5.6,39.4
			c-3.5,12.4-8.5,23.7-15,34l44.8,46.5H2024z M1926,298.5c11.5,0,22.1-2.4,31.8-7.2c9.8-4.8,18.4-11.5,25.8-20l-72.4-76.4
			c-11.9,8.3-21.8,17-29.6,26.1c-7.9,9.1-11.8,19.7-11.8,31.8c0,7.4,1.6,14,4.9,19.7c3.3,5.7,7.5,10.6,12.8,14.5
			c5.3,3.9,11.3,6.9,18,8.8C1912.2,297.6,1919,298.5,1926,298.5z M1886.6,123.4c0,2.7,0.4,5.4,1.2,8.1c0.8,2.7,2.2,5.8,4.4,9.3
			c2.1,3.5,5.1,7.5,8.8,12.1c3.7,4.6,8.6,10.1,14.6,16.3c6.5-4.5,12.5-8.7,18-12.6c5.5-3.9,10.2-7.9,14.1-11.8c3.9-3.9,7-8,9.1-12.1
			c2.1-4.2,3.2-8.6,3.2-13.3c0-8.8-3.3-15.9-9.8-21.6c-6.5-5.6-14.8-8.4-24.9-8.4c-5.6,0-10.8,0.9-15.5,2.7
			c-4.7,1.8-8.8,4.3-12.3,7.4c-3.5,3.1-6.2,6.7-8.1,10.8C1887.5,114.3,1886.6,118.7,1886.6,123.4z"/>
		<path class="st1" d="M2072.5,192.5c0-14.4,2.5-28.7,7.6-42.9c5.1-14.3,12.4-27,22.1-38.2c9.6-11.2,21.6-20.4,35.7-27.4
			c14.1-7.1,30.2-10.6,48.2-10.6c21.3,0,39.5,4.8,54.6,14.5c15,9.7,26.3,22.2,33.7,37.7l-18.9,11.5c-3.8-7.9-8.4-14.5-13.8-19.9
			c-5.4-5.4-11.2-9.8-17.5-13.1c-6.3-3.4-12.8-5.8-19.5-7.2c-6.7-1.5-13.4-2.2-19.9-2.2c-14.4,0-27.1,2.9-38.1,8.8
			c-11,5.8-20.3,13.5-27.8,22.9c-7.5,9.4-13.2,20-17,31.8c-3.8,11.8-5.7,23.7-5.7,35.9c0,13.2,2.3,25.9,6.9,38.1
			c4.6,12.1,10.9,22.8,18.9,32.2c8,9.3,17.4,16.7,28.3,22.2c10.9,5.5,22.7,8.3,35.5,8.3c6.7,0,13.6-0.8,20.7-2.5
			c7.1-1.7,13.9-4.4,20.5-8.1c6.6-3.7,12.7-8.3,18.4-13.8c5.6-5.5,10.3-12.2,14.1-20l19.5,10.1c-3.8,9-9.2,16.9-16.2,23.7
			c-7,6.9-14.7,12.6-23.2,17.3c-8.5,4.7-17.6,8.3-27.1,10.8c-9.5,2.5-18.9,3.7-28.1,3.7c-16.4,0-31.4-3.6-45.1-10.8
			c-13.7-7.2-25.5-16.6-35.4-28.1c-9.9-11.6-17.6-24.7-23.1-39.4C2075.2,222.7,2072.5,207.7,2072.5,192.5z"/>
		<path class="st1" d="M2414.3,315.4c-16.6,0-31.8-3.4-45.6-10.3c-13.8-6.8-25.7-15.9-35.5-27.3c-9.9-11.3-17.5-24.3-22.9-38.9
			c-5.4-14.6-8.1-29.5-8.1-44.8c0-15.9,2.9-31.2,8.6-45.8c5.7-14.6,13.6-27.5,23.7-38.7c10.1-11.2,22-20.2,35.7-26.8
			c13.7-6.6,28.5-9.9,44.5-9.9c16.6,0,31.8,3.5,45.6,10.6c13.8,7.1,25.6,16.3,35.4,27.8c9.8,11.4,17.3,24.4,22.7,38.9
			c5.4,14.5,8.1,29.2,8.1,44.3c0,15.9-2.9,31.2-8.6,45.8c-5.7,14.6-13.6,27.4-23.6,38.6c-10,11.1-21.8,20-35.5,26.6
			C2445,312.1,2430.2,315.4,2414.3,315.4z M2325.7,194.1c0,13,2.1,25.5,6.4,37.6c4.3,12,10.3,22.7,18.2,32
			c7.9,9.3,17.2,16.7,28,22.2c10.8,5.5,22.8,8.3,36,8.3c13.5,0,25.7-2.9,36.7-8.8c11-5.8,20.3-13.5,28-22.9
			c7.6-9.4,13.5-20.1,17.7-32c4.2-11.9,6.2-24,6.2-36.4c0-13-2.2-25.5-6.6-37.6c-4.4-12-10.5-22.6-18.4-31.8
			c-7.9-9.2-17.2-16.6-28-22.1c-10.8-5.5-22.7-8.2-35.7-8.2c-13.5,0-25.7,2.9-36.7,8.6c-11,5.7-20.3,13.3-28,22.7
			c-7.6,9.4-13.5,20.1-17.7,32C2327.8,169.7,2325.7,181.8,2325.7,194.1z"/>
	</g>
</g>
<g id="Calque_4">
	<g>
		<path class="st2" d="M75.8,154.2"/>
		<path class="st2" d="M179.4,106.2"/>
		<g>
			<linearGradient id="SVGID_1_" gradientUnits="userSpaceOnUse" x1="39.0046" y1="297.5114" x2="241.1456" y2="180.8053">
				<stop  offset="0" style="stop-color:#C41518"/>
				<stop  offset="0.6889" style="stop-color:#000000"/>
				<stop  offset="0.744" style="stop-color:#030000"/>
				<stop  offset="0.7862" style="stop-color:#0D0102"/>
				<stop  offset="0.8241" style="stop-color:#1D0304"/>
				<stop  offset="0.8596" style="stop-color:#340606"/>
				<stop  offset="0.8932" style="stop-color:#52090A"/>
				<stop  offset="0.9256" style="stop-color:#770D0F"/>
				<stop  offset="0.9563" style="stop-color:#A11114"/>
				<stop  offset="0.9778" style="stop-color:#C41518"/>
			</linearGradient>
			<path class="st3" d="M156.8,113.9l45.7,0c0,0,2.7,34.9-14.1,66.8c-6.6,12.6-6.6,17.1-34.7,45c-21.4,21.2-23.6,26.7-41,72.5
				c-7.9,20.8-23.7,85.9-23.7,85.9V238.9v-38.2C160.1,199.1,156.8,113.9,156.8,113.9z"/>
			<linearGradient id="SVGID_2_" gradientUnits="userSpaceOnUse" x1="122.8776" y1="112.6318" x2="122.8776" y2="112.6318">
				<stop  offset="0.2933" style="stop-color:#C41518"/>
				<stop  offset="1" style="stop-color:#000000"/>
			</linearGradient>
			<path class="st4" d="M122.9,112.6"/>
			<linearGradient id="SVGID_3_" gradientUnits="userSpaceOnUse" x1="14.9553" y1="121.1145" x2="199.2833" y2="121.1145">
				<stop  offset="0.4044" style="stop-color:#C41518"/>
				<stop  offset="1" style="stop-color:#000000"/>
			</linearGradient>
			<path class="st5" d="M129.6,121.4c0,0,10.7-9.7,14.9-15.3c0,0,17.3-17.7,17.1-46c0,0,2.5-24.7-18.3-42.3c0,0-17.4-16.9-52.2-17.2
				c0,0-25.7-2.7-48.9,12.3c0,0-59.6,37.6-2.4,99.1c11.7,12.6,116.1,125.2,120.5,129.9l39-50.2L81.6,72.4l0,0
				c-0.1-0.3-5.9-4.9-5.4-11.6c0,0,0-12,12.5-12.1c0,0,12.2-0.6,12.2,12.2c0,0,0.8,5.2-5.1,11.3c-0.1,0.1-0.5,0.5-0.6,0.6l-7.5,5.9
				l42,43"/>
			<linearGradient id="SVGID_4_" gradientUnits="userSpaceOnUse" x1="132.3628" y1="147.7794" x2="132.3628" y2="147.7794">
				<stop  offset="0.2933" style="stop-color:#C41518"/>
				<stop  offset="1" style="stop-color:#000000"/>
			</linearGradient>
			<path class="st6" d="M132.4,147.8"/>
			<linearGradient id="SVGID_5_" gradientUnits="userSpaceOnUse" x1="4.0865" y1="248.0796" x2="89.0386" y2="248.0796">
				<stop  offset="1" style="stop-color:#C41518"/>
				<stop  offset="1" style="stop-color:#000000"/>
			</linearGradient>
			<path class="st7" d="M40,112c0,0-26.4,17.8-31.9,32.7c-6.2,16.6-8.2,42.4,18.4,75.8C41,238.8,49,252.8,65.5,297.7
				c6.9,18.7,23.5,86.2,23.5,86.4V200.7c0,0-30.5-1.4-26.2-26.5c1.8-10.6,15-21.6,15-21.6L40,112z"/>
		</g>
	</g>
</g>
</svg>
