<svg xmlns="http://www.w3.org/2000/svg" viewBox="0 0 200 200">
	<defs>
		<style>.cls-1,.cls-3{fill:#444;}.cls-2{fill:#777;}.cls-3{stroke:#aaa;stroke-linejoin:round;stroke-width:2.234px;}.cls-4{fill:#333;}.cls-5{fill:#0066CC;}</style>
	</defs>
	<title>Zeichenfläche 3 Kopie 11</title>
	<g id="Ebene_2" data-name="Ebene 2">
		<path class="cls-1" d="M130.724,91.6a6.5,6.5,0,0,0-4.609-1.908H85.743a5.269,5.269,0,0,0-5.268,5.269V119.9a5.268,5.268,0,0,0,5.268,5.268h1.391v7.16a.526.526,0,0,0,.9.372l7.531-7.532h32.312a5.268,5.268,0,0,0,5.268-5.268l-.51-23.689A6.5,6.5,0,0,0,130.724,91.6Z"/>
		<path class="cls-2" d="M99.859,78.516a6.5,6.5,0,0,0-4.609-1.908H54.878a5.269,5.269,0,0,0-5.268,5.269v24.939a5.268,5.268,0,0,0,5.268,5.268h1.391v7.16a.526.526,0,0,0,.9.372l7.531-7.532H97.011a5.268,5.268,0,0,0,5.268-5.268l-.51-23.689A6.5,6.5,0,0,0,99.859,78.516Z"/>
		<path class="cls-3" d="M97.682,67.151a4.518,4.518,0,0,0-4.519,4.519v28.524a4.518,4.518,0,0,0,4.519,4.52h37.582l7.511,7.512v-7.512h3.1a4.521,4.521,0,0,0,4.519-4.52V71.67a4.52,4.52,0,0,0-4.519-4.519Z"/>
		<path class="cls-4" d="M85.592,103.342H81.875a.177.177,0,0,1-.165-.113L80.276,99.5H73.759L72.4,103.225a.176.176,0,0,1-.167.117H68.613a.177.177,0,0,1-.165-.241L75.039,86.18a.178.178,0,0,1,.165-.113h3.613a.177.177,0,0,1,.164.111L85.756,103.1a.177.177,0,0,1-.165.243M74.937,96.294h4.109l-2.075-5.588Z"/>
		<path class="cls-5" d="M112.829,95.926a.354.354,0,0,1-.318-.2l-1.187-2.437a.359.359,0,0,1-.006-.3.355.355,0,0,1,.226-.2,27.436,27.436,0,0,0,7.413-3.2,19.348,19.348,0,0,1-2.838-3.639,17.011,17.011,0,0,1-1.65-3.458h-2.354a.355.355,0,0,1-.355-.355v-2.5a.354.354,0,0,1,.355-.355h7.758V76.563a.354.354,0,0,1,.355-.355h3.016a.354.354,0,0,1,.355.355v2.724h7.883a.354.354,0,0,1,.355.355v2.5a.355.355,0,0,1-.355.355h-2.763a18.13,18.13,0,0,1-4.207,6.922A26.208,26.208,0,0,0,132,92.432a.355.355,0,0,1,.218.527l-1.628,2.711a.359.359,0,0,1-.4.158A28.482,28.482,0,0,1,121.7,91.9a30.53,30.53,0,0,1-8.767,4.012.345.345,0,0,1-.1.016m5.5-13.429a14.969,14.969,0,0,0,3.386,4.77,14.776,14.776,0,0,0,3.115-4.77Z"/>
	</g>
</svg>