<svg xmlns="http://www.w3.org/2000/svg" viewBox="0 0 200 200">
	<defs>
		<style>.cls-1{fill:#444;}.cls-2{fill:#909090;}.cls-3{fill:#0066CC;}.cls-4{fill:#ccc;}</style>
	</defs>
	<title>Zeichenfläche 3 Kopie 10</title>
	<g id="Ebene_2" data-name="Ebene 2">
		<rect class="cls-1" x="89.465" y="99.773" width="3.6" height="39.02"/>
		<rect class="cls-1" x="95.571" y="92.421" width="3.6" height="46.373"/>
		<rect class="cls-1" x="101.676" y="83.97" width="3.6" height="54.823"/>
		<rect class="cls-1" x="83.36" y="94.319" width="3.6" height="44.474"/>
		<rect class="cls-1" x="107.782" y="89.939" width="3.6" height="48.854"/>
		<rect class="cls-1" x="113.887" y="92.421" width="3.6" height="46.373"/>
		<rect class="cls-1" x="119.993" y="87.538" width="3.6" height="51.255"/>
		<rect class="cls-1" x="126.098" y="78.022" width="3.6" height="60.771"/>
		<rect class="cls-1" x="132.204" y="85.444" width="3.6" height="53.35"/>
		<rect class="cls-1" x="138.309" y="87.538" width="3.6" height="51.255"/>
		<rect class="cls-1" x="144.415" y="81.754" width="3.6" height="57.039"/>
		<rect class="cls-1" x="150.52" y="72.46" width="3.6" height="66.333"/>
		<path class="cls-2" d="M81.56,138.793l1.4-11.347,10.448,1.049a1,1,0,0,0,1.1-.916L95.68,112.77h5.634a1,1,0,0,0,.946-1.323L96.729,95.263V91.3h-.04a26.021,26.021,0,1,0-50.61,9.61l5.439,17.863-3.246,20.025Z"/>
		<path class="cls-1" d="M69.961,107.062A16.164,16.164,0,1,1,86.12,90.9,16.187,16.187,0,0,1,69.961,107.062Z"/>
		<rect class="cls-3" x="68.432" y="82.729" width="3.047" height="16.336"/>
		<rect class="cls-3" x="61.793" y="89.374" width="16.331" height="3.047"/>
		<polygon class="cls-4" points="113.036 82.416 112.597 82.416 112.283 82.105 106.202 76.021 107.699 74.524 113.78 80.61 113.034 81.356 113.036 82.416"/>
		<polygon class="cls-4" points="136.551 77.713 136.113 77.713 135.798 77.403 129.717 71.318 131.215 69.822 137.295 75.907 136.549 76.653 136.551 77.713"/>
		<polygon class="cls-4" points="140.315 77.713 139.876 77.713 139.874 76.653 139.128 75.907 149.911 65.118 151.409 66.615 140.315 77.713"/>
		<polygon class="cls-4" points="116.8 82.416 116.361 82.416 116.359 81.356 115.613 80.609 126.396 69.821 127.893 71.318 116.8 82.416"/>
		<polygon class="cls-4" points="93.286 87.119 92.847 87.119 92.845 86.059 92.099 85.313 102.882 74.525 104.379 76.021 93.286 87.119"/>
		<path class="cls-4" d="M91.182,90.721a3,3,0,1,1,3-3,3,3,0,0,1-3,3"/>
		<path class="cls-4" d="M105.291,76.612a3,3,0,1,1,3-3,3,3,0,0,1-3,3"/>
		<path class="cls-4" d="M114.7,86.018a3,3,0,1,1,3-3,3,3,0,0,1-3,3"/>
		<path class="cls-4" d="M128.806,71.91a3,3,0,1,1,3-3,3,3,0,0,1-3,3"/>
		<path class="cls-4" d="M138.211,81.315a3,3,0,1,1,3-3,3,3,0,0,1-3,3"/>
		<path class="cls-3" d="M152.32,67.207a3,3,0,1,1,3-3,3,3,0,0,1-3,3"/>
	</g>
</svg>