<svg xmlns="http://www.w3.org/2000/svg" viewBox="0 0 650 200">
	<defs>
		<style>.cls-1{fill:#ccc;}.cls-2{fill:#ddd;}.cls-3{fill:#fff;}.cls-4{fill:#aaa;}.cls-5{fill:#909090;}.cls-6{fill:#0066CC;}</style>
	</defs>
	<title>Zeichenfläche 3 Kopie 14</title>
	<g id="Ebene_2" data-name="Ebene 2">
		<path class="cls-1" d="M24.145,46.691a9.267,9.267,0,1,1,9.263-9.267,9.277,9.277,0,0,1-9.263,9.267"/>
		<path class="cls-1" d="M37.055,50.459a9.717,9.717,0,0,0-6.007-1.93H17.288a9.811,9.811,0,0,0-6.024,1.911,9.231,9.231,0,0,0-3.634,7.354v9.04H13.58V59.779a1.4,1.4,0,0,1,1.4-1.4h0a1.4,1.4,0,0,1,1.4,1.4v7.056H31.91V59.779a1.4,1.4,0,0,1,1.4-1.4h0a1.4,1.4,0,0,1,1.4,1.4v7.056h5.952v-9.04A9.243,9.243,0,0,0,37.055,50.459Z"/>
		<path class="cls-2" d="M74.288,46.691a9.267,9.267,0,1,1,9.263-9.267,9.277,9.277,0,0,1-9.263,9.267"/>
		<path class="cls-2" d="M87.2,50.459a9.717,9.717,0,0,0-6.007-1.93H67.431a9.811,9.811,0,0,0-6.024,1.911,9.231,9.231,0,0,0-3.634,7.354v9.04h5.949V59.779a1.4,1.4,0,0,1,1.4-1.4h0a1.4,1.4,0,0,1,1.4,1.4v7.056H82.052V59.779a1.4,1.4,0,0,1,1.4-1.4h0a1.4,1.4,0,0,1,1.4,1.4v7.056H90.8v-9.04A9.243,9.243,0,0,0,87.2,50.459Z"/>
		<path class="cls-2" d="M124.431,46.691a9.267,9.267,0,1,1,9.263-9.267,9.277,9.277,0,0,1-9.263,9.267"/>
		<path class="cls-2" d="M137.34,50.459a9.717,9.717,0,0,0-6.007-1.93h-13.76a9.811,9.811,0,0,0-6.024,1.911,9.231,9.231,0,0,0-3.634,7.354v9.04h5.949V59.779a1.4,1.4,0,0,1,1.4-1.4h0a1.4,1.4,0,0,1,1.4,1.4v7.056H132.2V59.779a1.4,1.4,0,0,1,1.4-1.4h0a1.4,1.4,0,0,1,1.4,1.4v7.056h5.952v-9.04A9.243,9.243,0,0,0,137.34,50.459Z"/>
		<path class="cls-2" d="M174.573,46.691a9.267,9.267,0,1,1,9.263-9.267,9.277,9.277,0,0,1-9.263,9.267"/>
		<path class="cls-2" d="M187.483,50.459a9.717,9.717,0,0,0-6.007-1.93h-13.76a9.811,9.811,0,0,0-6.024,1.911,9.231,9.231,0,0,0-3.634,7.354v9.04h5.949V59.779a1.4,1.4,0,0,1,1.4-1.4h0a1.4,1.4,0,0,1,1.4,1.4v7.056h15.534V59.779a1.4,1.4,0,0,1,1.4-1.4h0a1.4,1.4,0,0,1,1.4,1.4v7.056h5.952v-9.04A9.243,9.243,0,0,0,187.483,50.459Z"/>
		<path class="cls-2" d="M224.716,46.691a9.267,9.267,0,1,1,9.263-9.267,9.277,9.277,0,0,1-9.263,9.267"/>
		<path class="cls-2" d="M237.626,50.459a9.717,9.717,0,0,0-6.007-1.93h-13.76a9.811,9.811,0,0,0-6.024,1.911,9.231,9.231,0,0,0-3.634,7.354v9.04h5.949V59.779a1.4,1.4,0,0,1,1.4-1.4h0a1.4,1.4,0,0,1,1.4,1.4v7.056H232.48V59.779a1.4,1.4,0,0,1,1.4-1.4h0a1.4,1.4,0,0,1,1.4,1.4v7.056h5.952v-9.04A9.243,9.243,0,0,0,237.626,50.459Z"/>
		<path class="cls-2" d="M274.858,46.691a9.267,9.267,0,1,1,9.263-9.267,9.277,9.277,0,0,1-9.263,9.267"/>
		<path class="cls-2" d="M287.768,50.459a9.717,9.717,0,0,0-6.007-1.93H268a9.811,9.811,0,0,0-6.024,1.911,9.231,9.231,0,0,0-3.634,7.354v9.04h5.949V59.779a1.4,1.4,0,0,1,1.4-1.4h0a1.4,1.4,0,0,1,1.4,1.4v7.056h15.534V59.779a1.4,1.4,0,0,1,1.4-1.4h0a1.4,1.4,0,0,1,1.4,1.4v7.056h5.952v-9.04A9.243,9.243,0,0,0,287.768,50.459Z"/>
		<path class="cls-2" d="M325,46.691a9.267,9.267,0,1,1,9.263-9.267A9.277,9.277,0,0,1,325,46.691"/>
		<path class="cls-2" d="M337.911,50.459a9.717,9.717,0,0,0-6.007-1.93h-13.76a9.811,9.811,0,0,0-6.024,1.911,9.231,9.231,0,0,0-3.634,7.354v9.04h5.949V59.779a1.4,1.4,0,0,1,1.4-1.4h0a1.4,1.4,0,0,1,1.4,1.4v7.056h15.534V59.779a1.4,1.4,0,0,1,1.4-1.4h0a1.4,1.4,0,0,1,1.4,1.4v7.056h5.952v-9.04A9.243,9.243,0,0,0,337.911,50.459Z"/>
		<path class="cls-2" d="M375.144,46.691a9.267,9.267,0,1,1,9.263-9.267,9.277,9.277,0,0,1-9.263,9.267"/>
		<path class="cls-2" d="M388.054,50.459a9.717,9.717,0,0,0-6.007-1.93h-13.76a9.811,9.811,0,0,0-6.024,1.911,9.231,9.231,0,0,0-3.634,7.354v9.04h5.949V59.779a1.4,1.4,0,0,1,1.4-1.4h0a1.4,1.4,0,0,1,1.4,1.4v7.056h15.534V59.779a1.4,1.4,0,0,1,1.4-1.4h0a1.4,1.4,0,0,1,1.4,1.4v7.056h5.952v-9.04A9.243,9.243,0,0,0,388.054,50.459Z"/>
		<path class="cls-2" d="M24.145,99.2a9.267,9.267,0,1,1,9.263-9.267A9.277,9.277,0,0,1,24.145,99.2"/>
		<path class="cls-2" d="M37.055,102.963a9.717,9.717,0,0,0-6.007-1.93H17.288a9.811,9.811,0,0,0-6.024,1.911A9.231,9.231,0,0,0,7.631,110.3v9.04H13.58v-7.056a1.4,1.4,0,0,1,1.4-1.4h0a1.4,1.4,0,0,1,1.4,1.4v7.056H31.91v-7.056a1.4,1.4,0,0,1,1.4-1.4h0a1.4,1.4,0,0,1,1.4,1.4v7.056h5.952V110.3A9.243,9.243,0,0,0,37.055,102.963Z"/>
		<path class="cls-2" d="M74.288,99.2a9.267,9.267,0,1,1,9.263-9.267A9.277,9.277,0,0,1,74.288,99.2"/>
		<path class="cls-2" d="M87.2,102.963a9.717,9.717,0,0,0-6.007-1.93H67.431a9.811,9.811,0,0,0-6.024,1.911,9.231,9.231,0,0,0-3.634,7.354v9.04h5.949v-7.056a1.4,1.4,0,0,1,1.4-1.4h0a1.4,1.4,0,0,1,1.4,1.4v7.056H82.052v-7.056a1.4,1.4,0,0,1,1.4-1.4h0a1.4,1.4,0,0,1,1.4,1.4v7.056H90.8V110.3A9.243,9.243,0,0,0,87.2,102.963Z"/>
		<path class="cls-2" d="M124.431,99.2a9.267,9.267,0,1,1,9.263-9.267,9.277,9.277,0,0,1-9.263,9.267"/>
		<path class="cls-2" d="M137.34,102.963a9.717,9.717,0,0,0-6.007-1.93h-13.76a9.811,9.811,0,0,0-6.024,1.911,9.231,9.231,0,0,0-3.634,7.354v9.04h5.949v-7.056a1.4,1.4,0,0,1,1.4-1.4h0a1.4,1.4,0,0,1,1.4,1.4v7.056H132.2v-7.056a1.4,1.4,0,0,1,1.4-1.4h0a1.4,1.4,0,0,1,1.4,1.4v7.056h5.952V110.3A9.243,9.243,0,0,0,137.34,102.963Z"/>
		<path class="cls-1" d="M174.573,99.2a9.267,9.267,0,1,1,9.263-9.267,9.277,9.277,0,0,1-9.263,9.267"/>
		<path class="cls-1" d="M187.483,102.963a9.717,9.717,0,0,0-6.007-1.93h-13.76a9.811,9.811,0,0,0-6.024,1.911,9.231,9.231,0,0,0-3.634,7.354v9.04h5.949v-7.056a1.4,1.4,0,0,1,1.4-1.4h0a1.4,1.4,0,0,1,1.4,1.4v7.056h15.534v-7.056a1.4,1.4,0,0,1,1.4-1.4h0a1.4,1.4,0,0,1,1.4,1.4v7.056h5.952V110.3A9.243,9.243,0,0,0,187.483,102.963Z"/>
		<path class="cls-2" d="M224.716,99.2a9.267,9.267,0,1,1,9.263-9.267,9.277,9.277,0,0,1-9.263,9.267"/>
		<path class="cls-2" d="M237.626,102.963a9.717,9.717,0,0,0-6.007-1.93h-13.76a9.811,9.811,0,0,0-6.024,1.911A9.231,9.231,0,0,0,208.2,110.3v9.04h5.949v-7.056a1.4,1.4,0,0,1,1.4-1.4h0a1.4,1.4,0,0,1,1.4,1.4v7.056H232.48v-7.056a1.4,1.4,0,0,1,1.4-1.4h0a1.4,1.4,0,0,1,1.4,1.4v7.056h5.952V110.3A9.243,9.243,0,0,0,237.626,102.963Z"/>
		<path class="cls-2" d="M274.858,99.2a9.267,9.267,0,1,1,9.263-9.267,9.277,9.277,0,0,1-9.263,9.267"/>
		<path class="cls-2" d="M287.768,102.963a9.717,9.717,0,0,0-6.007-1.93H268a9.811,9.811,0,0,0-6.024,1.911,9.231,9.231,0,0,0-3.634,7.354v9.04h5.949v-7.056a1.4,1.4,0,0,1,1.4-1.4h0a1.4,1.4,0,0,1,1.4,1.4v7.056h15.534v-7.056a1.4,1.4,0,0,1,1.4-1.4h0a1.4,1.4,0,0,1,1.4,1.4v7.056h5.952V110.3A9.243,9.243,0,0,0,287.768,102.963Z"/>
		<path class="cls-2" d="M325,99.2a9.267,9.267,0,1,1,9.263-9.267A9.277,9.277,0,0,1,325,99.2"/>
		<path class="cls-2" d="M337.911,102.963a9.717,9.717,0,0,0-6.007-1.93h-13.76a9.811,9.811,0,0,0-6.024,1.911,9.231,9.231,0,0,0-3.634,7.354v9.04h5.949v-7.056a1.4,1.4,0,0,1,1.4-1.4h0a1.4,1.4,0,0,1,1.4,1.4v7.056h15.534v-7.056a1.4,1.4,0,0,1,1.4-1.4h0a1.4,1.4,0,0,1,1.4,1.4v7.056h5.952V110.3A9.243,9.243,0,0,0,337.911,102.963Z"/>
		<path class="cls-2" d="M375.144,99.2a9.267,9.267,0,1,1,9.263-9.267,9.277,9.277,0,0,1-9.263,9.267"/>
		<path class="cls-2" d="M388.054,102.963a9.717,9.717,0,0,0-6.007-1.93h-13.76a9.811,9.811,0,0,0-6.024,1.911,9.231,9.231,0,0,0-3.634,7.354v9.04h5.949v-7.056a1.4,1.4,0,0,1,1.4-1.4h0a1.4,1.4,0,0,1,1.4,1.4v7.056h15.534v-7.056a1.4,1.4,0,0,1,1.4-1.4h0a1.4,1.4,0,0,1,1.4,1.4v7.056h5.952V110.3A9.243,9.243,0,0,0,388.054,102.963Z"/>
		<path class="cls-1" d="M24.145,151.7a9.267,9.267,0,1,1,9.263-9.267,9.277,9.277,0,0,1-9.263,9.267"/>
		<path class="cls-1" d="M37.055,155.467a9.717,9.717,0,0,0-6.007-1.93H17.288a9.811,9.811,0,0,0-6.024,1.911A9.231,9.231,0,0,0,7.631,162.8v9.04H13.58v-7.056a1.4,1.4,0,0,1,1.4-1.4h0a1.4,1.4,0,0,1,1.4,1.4v7.056H31.91v-7.056a1.4,1.4,0,0,1,1.4-1.4h0a1.4,1.4,0,0,1,1.4,1.4v7.056h5.952V162.8A9.243,9.243,0,0,0,37.055,155.467Z"/>
		<path class="cls-2" d="M74.288,151.7a9.267,9.267,0,1,1,9.263-9.267,9.277,9.277,0,0,1-9.263,9.267"/>
		<path class="cls-2" d="M87.2,155.467a9.717,9.717,0,0,0-6.007-1.93H67.431a9.811,9.811,0,0,0-6.024,1.911,9.231,9.231,0,0,0-3.634,7.354v9.04h5.949v-7.056a1.4,1.4,0,0,1,1.4-1.4h0a1.4,1.4,0,0,1,1.4,1.4v7.056H82.052v-7.056a1.4,1.4,0,0,1,1.4-1.4h0a1.4,1.4,0,0,1,1.4,1.4v7.056H90.8V162.8A9.243,9.243,0,0,0,87.2,155.467Z"/>
		<path class="cls-2" d="M124.431,151.7a9.267,9.267,0,1,1,9.263-9.267,9.277,9.277,0,0,1-9.263,9.267"/>
		<path class="cls-2" d="M137.34,155.467a9.717,9.717,0,0,0-6.007-1.93h-13.76a9.811,9.811,0,0,0-6.024,1.911,9.231,9.231,0,0,0-3.634,7.354v9.04h5.949v-7.056a1.4,1.4,0,0,1,1.4-1.4h0a1.4,1.4,0,0,1,1.4,1.4v7.056H132.2v-7.056a1.4,1.4,0,0,1,1.4-1.4h0a1.4,1.4,0,0,1,1.4,1.4v7.056h5.952V162.8A9.243,9.243,0,0,0,137.34,155.467Z"/>
		<path class="cls-2" d="M174.573,151.7a9.267,9.267,0,1,1,9.263-9.267,9.277,9.277,0,0,1-9.263,9.267"/>
		<path class="cls-2" d="M187.483,155.467a9.717,9.717,0,0,0-6.007-1.93h-13.76a9.811,9.811,0,0,0-6.024,1.911,9.231,9.231,0,0,0-3.634,7.354v9.04h5.949v-7.056a1.4,1.4,0,0,1,1.4-1.4h0a1.4,1.4,0,0,1,1.4,1.4v7.056h15.534v-7.056a1.4,1.4,0,0,1,1.4-1.4h0a1.4,1.4,0,0,1,1.4,1.4v7.056h5.952V162.8A9.243,9.243,0,0,0,187.483,155.467Z"/>
		<path class="cls-2" d="M224.716,151.7a9.267,9.267,0,1,1,9.263-9.267,9.277,9.277,0,0,1-9.263,9.267"/>
		<path class="cls-2" d="M237.626,155.467a9.717,9.717,0,0,0-6.007-1.93h-13.76a9.811,9.811,0,0,0-6.024,1.911A9.231,9.231,0,0,0,208.2,162.8v9.04h5.949v-7.056a1.4,1.4,0,0,1,1.4-1.4h0a1.4,1.4,0,0,1,1.4,1.4v7.056H232.48v-7.056a1.4,1.4,0,0,1,1.4-1.4h0a1.4,1.4,0,0,1,1.4,1.4v7.056h5.952V162.8A9.243,9.243,0,0,0,237.626,155.467Z"/>
		<path class="cls-2" d="M274.858,151.7a9.267,9.267,0,1,1,9.263-9.267,9.277,9.277,0,0,1-9.263,9.267"/>
		<path class="cls-2" d="M287.768,155.467a9.717,9.717,0,0,0-6.007-1.93H268a9.811,9.811,0,0,0-6.024,1.911,9.231,9.231,0,0,0-3.634,7.354v9.04h5.949v-7.056a1.4,1.4,0,0,1,1.4-1.4h0a1.4,1.4,0,0,1,1.4,1.4v7.056h15.534v-7.056a1.4,1.4,0,0,1,1.4-1.4h0a1.4,1.4,0,0,1,1.4,1.4v7.056h5.952V162.8A9.243,9.243,0,0,0,287.768,155.467Z"/>
		<path class="cls-2" d="M325,151.7a9.267,9.267,0,1,1,9.263-9.267A9.277,9.277,0,0,1,325,151.7"/>
		<path class="cls-2" d="M337.911,155.467a9.717,9.717,0,0,0-6.007-1.93h-13.76a9.811,9.811,0,0,0-6.024,1.911,9.231,9.231,0,0,0-3.634,7.354v9.04h5.949v-7.056a1.4,1.4,0,0,1,1.4-1.4h0a1.4,1.4,0,0,1,1.4,1.4v7.056h15.534v-7.056a1.4,1.4,0,0,1,1.4-1.4h0a1.4,1.4,0,0,1,1.4,1.4v7.056h5.952V162.8A9.243,9.243,0,0,0,337.911,155.467Z"/>
		<path class="cls-2" d="M375.144,151.7a9.267,9.267,0,1,1,9.263-9.267,9.277,9.277,0,0,1-9.263,9.267"/>
		<path class="cls-2" d="M388.054,155.467a9.717,9.717,0,0,0-6.007-1.93h-13.76a9.811,9.811,0,0,0-6.024,1.911,9.231,9.231,0,0,0-3.634,7.354v9.04h5.949v-7.056a1.4,1.4,0,0,1,1.4-1.4h0a1.4,1.4,0,0,1,1.4,1.4v7.056h15.534v-7.056a1.4,1.4,0,0,1,1.4-1.4h0a1.4,1.4,0,0,1,1.4,1.4v7.056h5.952V162.8A9.243,9.243,0,0,0,388.054,155.467Z"/>
		<path class="cls-2" d="M425.286,46.691a9.267,9.267,0,1,1,9.263-9.267,9.277,9.277,0,0,1-9.263,9.267"/>
		<path class="cls-2" d="M438.2,50.459a9.717,9.717,0,0,0-6.007-1.93h-13.76a9.811,9.811,0,0,0-6.024,1.911,9.231,9.231,0,0,0-3.634,7.354v9.04h5.949V59.779a1.4,1.4,0,0,1,1.4-1.4h0a1.4,1.4,0,0,1,1.4,1.4v7.056h15.534V59.779a1.4,1.4,0,0,1,1.4-1.4h0a1.4,1.4,0,0,1,1.4,1.4v7.056H441.8v-9.04A9.243,9.243,0,0,0,438.2,50.459Z"/>
		<path class="cls-2" d="M475.429,46.691a9.267,9.267,0,1,1,9.263-9.267,9.277,9.277,0,0,1-9.263,9.267"/>
		<path class="cls-2" d="M488.339,50.459a9.717,9.717,0,0,0-6.007-1.93h-13.76a9.811,9.811,0,0,0-6.024,1.911,9.231,9.231,0,0,0-3.634,7.354v9.04h5.949V59.779a1.4,1.4,0,0,1,1.4-1.4h0a1.4,1.4,0,0,1,1.4,1.4v7.056h15.534V59.779a1.4,1.4,0,0,1,1.4-1.4h0a1.4,1.4,0,0,1,1.4,1.4v7.056h5.952v-9.04A9.243,9.243,0,0,0,488.339,50.459Z"/>
		<path class="cls-2" d="M525.572,46.691a9.267,9.267,0,1,1,9.263-9.267,9.277,9.277,0,0,1-9.263,9.267"/>
		<path class="cls-2" d="M538.482,50.459a9.717,9.717,0,0,0-6.007-1.93h-13.76a9.811,9.811,0,0,0-6.024,1.911,9.231,9.231,0,0,0-3.634,7.354v9.04h5.949V59.779a1.4,1.4,0,0,1,1.4-1.4h0a1.4,1.4,0,0,1,1.4,1.4v7.056h15.534V59.779a1.4,1.4,0,0,1,1.4-1.4h0a1.4,1.4,0,0,1,1.4,1.4v7.056h5.952v-9.04A9.243,9.243,0,0,0,538.482,50.459Z"/>
		<path class="cls-2" d="M425.286,99.2a9.267,9.267,0,1,1,9.263-9.267,9.277,9.277,0,0,1-9.263,9.267"/>
		<path class="cls-2" d="M438.2,102.963a9.717,9.717,0,0,0-6.007-1.93h-13.76a9.811,9.811,0,0,0-6.024,1.911,9.231,9.231,0,0,0-3.634,7.354v9.04h5.949v-7.056a1.4,1.4,0,0,1,1.4-1.4h0a1.4,1.4,0,0,1,1.4,1.4v7.056h15.534v-7.056a1.4,1.4,0,0,1,1.4-1.4h0a1.4,1.4,0,0,1,1.4,1.4v7.056H441.8V110.3A9.243,9.243,0,0,0,438.2,102.963Z"/>
		<path class="cls-1" d="M475.429,99.2a9.267,9.267,0,1,1,9.263-9.267,9.277,9.277,0,0,1-9.263,9.267"/>
		<path class="cls-1" d="M488.339,102.963a9.717,9.717,0,0,0-6.007-1.93h-13.76a9.811,9.811,0,0,0-6.024,1.911,9.231,9.231,0,0,0-3.634,7.354v9.04h5.949v-7.056a1.4,1.4,0,0,1,1.4-1.4h0a1.4,1.4,0,0,1,1.4,1.4v7.056h15.534v-7.056a1.4,1.4,0,0,1,1.4-1.4h0a1.4,1.4,0,0,1,1.4,1.4v7.056h5.952V110.3A9.243,9.243,0,0,0,488.339,102.963Z"/>
		<path class="cls-2" d="M525.572,99.2a9.267,9.267,0,1,1,9.263-9.267,9.277,9.277,0,0,1-9.263,9.267"/>
		<path class="cls-2" d="M538.482,102.963a9.717,9.717,0,0,0-6.007-1.93h-13.76a9.811,9.811,0,0,0-6.024,1.911,9.231,9.231,0,0,0-3.634,7.354v9.04h5.949v-7.056a1.4,1.4,0,0,1,1.4-1.4h0a1.4,1.4,0,0,1,1.4,1.4v7.056h15.534v-7.056a1.4,1.4,0,0,1,1.4-1.4h0a1.4,1.4,0,0,1,1.4,1.4v7.056h5.952V110.3A9.243,9.243,0,0,0,538.482,102.963Z"/>
		<path class="cls-2" d="M425.286,151.7a9.267,9.267,0,1,1,9.263-9.267,9.277,9.277,0,0,1-9.263,9.267"/>
		<path class="cls-2" d="M438.2,155.467a9.717,9.717,0,0,0-6.007-1.93h-13.76a9.811,9.811,0,0,0-6.024,1.911,9.231,9.231,0,0,0-3.634,7.354v9.04h5.949v-7.056a1.4,1.4,0,0,1,1.4-1.4h0a1.4,1.4,0,0,1,1.4,1.4v7.056h15.534v-7.056a1.4,1.4,0,0,1,1.4-1.4h0a1.4,1.4,0,0,1,1.4,1.4v7.056H441.8V162.8A9.243,9.243,0,0,0,438.2,155.467Z"/>
		<path class="cls-2" d="M475.429,151.7a9.267,9.267,0,1,1,9.263-9.267,9.277,9.277,0,0,1-9.263,9.267"/>
		<path class="cls-2" d="M488.339,155.467a9.717,9.717,0,0,0-6.007-1.93h-13.76a9.811,9.811,0,0,0-6.024,1.911,9.231,9.231,0,0,0-3.634,7.354v9.04h5.949v-7.056a1.4,1.4,0,0,1,1.4-1.4h0a1.4,1.4,0,0,1,1.4,1.4v7.056h15.534v-7.056a1.4,1.4,0,0,1,1.4-1.4h0a1.4,1.4,0,0,1,1.4,1.4v7.056h5.952V162.8A9.243,9.243,0,0,0,488.339,155.467Z"/>
		<path class="cls-1" d="M525.572,151.7a9.267,9.267,0,1,1,9.263-9.267,9.277,9.277,0,0,1-9.263,9.267"/>
		<path class="cls-1" d="M538.482,155.467a9.717,9.717,0,0,0-6.007-1.93h-13.76a9.811,9.811,0,0,0-6.024,1.911,9.231,9.231,0,0,0-3.634,7.354v9.04h5.949v-7.056a1.4,1.4,0,0,1,1.4-1.4h0a1.4,1.4,0,0,1,1.4,1.4v7.056h15.534v-7.056a1.4,1.4,0,0,1,1.4-1.4h0a1.4,1.4,0,0,1,1.4,1.4v7.056h5.952V162.8A9.243,9.243,0,0,0,538.482,155.467Z"/>
		<path class="cls-2" d="M575.714,46.691a9.267,9.267,0,1,1,9.263-9.267,9.277,9.277,0,0,1-9.263,9.267"/>
		<path class="cls-2" d="M588.624,50.459a9.717,9.717,0,0,0-6.007-1.93h-13.76a9.811,9.811,0,0,0-6.024,1.911,9.231,9.231,0,0,0-3.634,7.354v9.04h5.949V59.779a1.4,1.4,0,0,1,1.4-1.4h0a1.4,1.4,0,0,1,1.4,1.4v7.056h15.534V59.779a1.4,1.4,0,0,1,1.4-1.4h0a1.4,1.4,0,0,1,1.4,1.4v7.056h5.952v-9.04A9.243,9.243,0,0,0,588.624,50.459Z"/>
		<path class="cls-1" d="M625.857,46.691a9.267,9.267,0,1,1,9.263-9.267,9.277,9.277,0,0,1-9.263,9.267"/>
		<path class="cls-1" d="M638.767,50.459a9.717,9.717,0,0,0-6.007-1.93H619a9.811,9.811,0,0,0-6.024,1.911,9.231,9.231,0,0,0-3.634,7.354v9.04h5.949V59.779a1.4,1.4,0,0,1,1.4-1.4h0a1.4,1.4,0,0,1,1.4,1.4v7.056h15.534V59.779a1.4,1.4,0,0,1,1.4-1.4h0a1.4,1.4,0,0,1,1.4,1.4v7.056h5.952v-9.04A9.243,9.243,0,0,0,638.767,50.459Z"/>
		<path class="cls-2" d="M575.714,99.2a9.267,9.267,0,1,1,9.263-9.267,9.277,9.277,0,0,1-9.263,9.267"/>
		<path class="cls-2" d="M588.624,102.963a9.717,9.717,0,0,0-6.007-1.93h-13.76a9.811,9.811,0,0,0-6.024,1.911A9.231,9.231,0,0,0,559.2,110.3v9.04h5.949v-7.056a1.4,1.4,0,0,1,1.4-1.4h0a1.4,1.4,0,0,1,1.4,1.4v7.056h15.534v-7.056a1.4,1.4,0,0,1,1.4-1.4h0a1.4,1.4,0,0,1,1.4,1.4v7.056h5.952V110.3A9.243,9.243,0,0,0,588.624,102.963Z"/>
		<path class="cls-2" d="M625.857,99.2a9.267,9.267,0,1,1,9.263-9.267,9.277,9.277,0,0,1-9.263,9.267"/>
		<path class="cls-2" d="M638.767,102.963a9.717,9.717,0,0,0-6.007-1.93H619a9.811,9.811,0,0,0-6.024,1.911,9.231,9.231,0,0,0-3.634,7.354v9.04h5.949v-7.056a1.4,1.4,0,0,1,1.4-1.4h0a1.4,1.4,0,0,1,1.4,1.4v7.056h15.534v-7.056a1.4,1.4,0,0,1,1.4-1.4h0a1.4,1.4,0,0,1,1.4,1.4v7.056h5.952V110.3A9.243,9.243,0,0,0,638.767,102.963Z"/>
		<path class="cls-2" d="M575.714,151.7a9.267,9.267,0,1,1,9.263-9.267,9.277,9.277,0,0,1-9.263,9.267"/>
		<path class="cls-2" d="M588.624,155.467a9.717,9.717,0,0,0-6.007-1.93h-13.76a9.811,9.811,0,0,0-6.024,1.911A9.231,9.231,0,0,0,559.2,162.8v9.04h5.949v-7.056a1.4,1.4,0,0,1,1.4-1.4h0a1.4,1.4,0,0,1,1.4,1.4v7.056h15.534v-7.056a1.4,1.4,0,0,1,1.4-1.4h0a1.4,1.4,0,0,1,1.4,1.4v7.056h5.952V162.8A9.243,9.243,0,0,0,588.624,155.467Z"/>
		<path class="cls-2" d="M625.857,151.7a9.267,9.267,0,1,1,9.263-9.267,9.277,9.277,0,0,1-9.263,9.267"/>
		<path class="cls-2" d="M638.767,155.467a9.717,9.717,0,0,0-6.007-1.93H619a9.811,9.811,0,0,0-6.024,1.911,9.231,9.231,0,0,0-3.634,7.354v9.04h5.949v-7.056a1.4,1.4,0,0,1,1.4-1.4h0a1.4,1.4,0,0,1,1.4,1.4v7.056h15.534v-7.056a1.4,1.4,0,0,1,1.4-1.4h0a1.4,1.4,0,0,1,1.4,1.4v7.056h5.952V162.8A9.243,9.243,0,0,0,638.767,155.467Z"/>
		<path class="cls-1" d="M374.055,37.363H294.762a1.843,1.843,0,0,0-1.969,1.683V143.02a1.843,1.843,0,0,0,1.969,1.683H395.239a1.843,1.843,0,0,0,1.969-1.683V60.59Z"/>
		<path class="cls-3" d="M274.927,153.528c-.454,0-.793-.268-.793-.508V49.046c0-.239.339-.507.793-.507h78.8L376.2,71.077V153.02c0,.24-.339.508-.793.508Z"/>
		<path class="cls-4" d="M353.244,49.714l21.777,21.848v80.79H275.31V49.714h77.934m.976-2.351H274.928a1.842,1.842,0,0,0-1.969,1.683V153.02a1.843,1.843,0,0,0,1.969,1.683H375.4a1.843,1.843,0,0,0,1.969-1.683V70.591L354.221,47.363Z"/>
		<path class="cls-1" d="M353.092,111.688h-4V106.06a3.392,3.392,0,0,0-3.386-3.388H304.628a3.392,3.392,0,0,0-3.39,3.388v5.628h-4V106.06a7.384,7.384,0,0,1,7.386-7.384h41.081a7.387,7.387,0,0,1,7.382,7.384Z"/>
		<rect class="cls-1" x="323.168" y="89.66" width="3.997" height="22.028"/>
		<path class="cls-5" d="M334.345,133.316H315.986V114.959h18.359Z"/>
		<path class="cls-6" d="M341.527,86.388H308.806V68.029h32.721Z"/>
		<path class="cls-5" d="M360.274,133.316H341.917V114.959h18.357Z"/>
		<path class="cls-5" d="M308.42,133.316H290.062V114.959H308.42Z"/>
		<path class="cls-4" d="M376.365,71.607H354.9a1.683,1.683,0,0,1-1.683-1.683V48.371Z"/>
	</g>
</svg>