<svg xmlns="http://www.w3.org/2000/svg" viewBox="0 0 200 200">
	<defs>
		<style>.cls-1{fill:#444;}.cls-2{fill:#909090;}.cls-3{fill:#ccc;}.cls-4{fill:#0066CC;}</style>
	</defs>
	<title>Zeichenfläche 3 Kopie 9</title>
	<g id="Ebene_2" data-name="Ebene 2">
		<path class="cls-1" d="M121.671,122.346H54.934a1,1,0,0,1-1-1V70.924a1,1,0,0,1,1-1h66.737a1,1,0,0,1,1,1v50.422A1,1,0,0,1,121.671,122.346Z"/>
		<path class="cls-2" d="M113.94,130.076H47.2a1,1,0,0,1-1-1V78.654a1,1,0,0,1,1-1H113.94a1,1,0,0,1,1,1v50.422A1,1,0,0,1,113.94,130.076Z"/>
		<rect class="cls-1" x="48.86" y="80.299" width="63.422" height="47.132"/>
		<path class="cls-2" d="M64.977,99.524a6.556,6.556,0,1,1,6.587-6.555,6.579,6.579,0,0,1-6.587,6.555"/>
		<path class="cls-2" d="M98.316,92.213,77.707,112.725l-7.035-7L48.86,127.431h63.422V106.109Z"/>
		<rect class="cls-3" x="119.873" y="99.265" width="6.58" height="2.919"/>
		<rect class="cls-3" x="126.39" y="97.116" width="27.407" height="7.211"/>
		<path class="cls-3" d="M85.906,100.114A17.361,17.361,0,1,0,103.269,82.75a17.361,17.361,0,0,0-17.363,17.363"/>
		<path class="cls-1" d="M89.565,100.114a13.7,13.7,0,1,0,13.7-13.706,13.7,13.7,0,0,0-13.7,13.706"/>
		<path class="cls-4" d="M103.27,105.37a11.35,11.35,0,0,1-9.475-5.088h0a.307.307,0,0,1,0-.34h0a11.365,11.365,0,0,1,18.949,0h0a.307.307,0,0,1,0,.34h0A11.35,11.35,0,0,1,103.27,105.37Z"/>
		<path class="cls-1" d="M103.27,96.063a4.049,4.049,0,1,0,4.049,4.049A4.053,4.053,0,0,0,103.27,96.063Z"/>
		<path class="cls-4" d="M103.27,101.67a1.558,1.558,0,1,1,1.558-1.558A1.56,1.56,0,0,1,103.27,101.67Z"/>
	</g>
</svg>