<svg xmlns="http://www.w3.org/2000/svg" viewBox="0 0 200 200">
	<defs>
		<style>.cls-1{fill:#333;}.cls-2{fill:#444;}.cls-3{fill:#777;}.cls-4{fill:#aaa;}.cls-5{fill:#ccc;}.cls-6{fill:#0066CC;}.cls-7{fill:#909090;}</style>
	</defs>
	<title>Zeichenfläche 3 Kopie 13</title>
	<g id="Ebene_2" data-name="Ebene 2">
		<rect class="cls-1" x="24.172" y="33.153" width="170.574" height="117.025" rx="1.79" ry="1.79"/>
		<rect class="cls-2" x="13.066" y="53.032" width="107.35" height="72.401"/>
		<path class="cls-3" d="M118.428,55.02v68.426H15.053V55.02H118.428m2.807-3.975H12.247a1.168,1.168,0,0,0-1.168,1.168v74.039a1.168,1.168,0,0,0,1.168,1.168H121.235a1.168,1.168,0,0,0,1.168-1.168V52.213a1.168,1.168,0,0,0-1.168-1.168Z"/>
		<path class="cls-3" d="M128.226,137.135H5.254V124.054a1.168,1.168,0,0,1,1.168-1.168H127.058a1.168,1.168,0,0,1,1.168,1.168Z"/>
		<path class="cls-3" d="M83.574,60.444H49.908V47.365A1.168,1.168,0,0,1,51.076,46.2H82.405a1.168,1.168,0,0,1,1.168,1.168Z"/>
		<rect class="cls-3" x="64.47" y="136.805" width="4.541" height="26.912"/>
		<path class="cls-3" d="M69.011,48.467H64.47v-8.6A2.266,2.266,0,0,1,66.737,37.6h.008a2.266,2.266,0,0,1,2.266,2.266Z"/>
		<rect class="cls-3" x="90.351" y="132.629" width="4.54" height="33.322" transform="translate(-62.222 66.286) rotate(-29.99)"/>
		<rect class="cls-3" x="24.199" y="147.019" width="33.323" height="4.54" transform="translate(-108.86 110.037) rotate(-60.002)"/>
		<rect class="cls-4" x="26.947" y="71.233" width="30.257" height="4.541"/>
		<rect class="cls-4" x="26.947" y="80.314" width="30.257" height="4.54"/>
		<rect class="cls-4" x="26.947" y="89.395" width="30.257" height="4.54"/>
		<rect class="cls-4" x="26.947" y="98.475" width="30.257" height="4.54"/>
		<rect class="cls-4" x="26.947" y="107.556" width="15.129" height="4.54"/>
		<path class="cls-5" d="M101.656,95.523H99.432V92.392a1.887,1.887,0,0,0-1.884-1.885H74.693a1.887,1.887,0,0,0-1.886,1.885v3.131H70.583V92.392a4.108,4.108,0,0,1,4.109-4.108H97.548a4.11,4.11,0,0,1,4.107,4.108Z"/>
		<rect class="cls-5" x="85.008" y="83.268" width="2.224" height="12.256"/>
		<path class="cls-5" d="M91.226,107.556H81.012V97.343H91.226Z"/>
		<path class="cls-6" d="M95.222,81.447h-18.2V71.233h18.2Z"/>
		<path class="cls-5" d="M105.651,107.556H95.438V97.343h10.213Z"/>
		<path class="cls-5" d="M76.8,107.556H66.588V97.343H76.8Z"/>
		<path class="cls-7" d="M115.215,104.123c-1.427,0-2.592-1.912-2.592-3.339s1.165-3.337,2.592-3.337H159.65c6.662,0,8.945,3.476,8.945,8.945v21.033c0,1.427-1.912,2.592-3.337,2.592s-3.335-1.165-3.335-2.592V109.458c0-1.334-2.671-1.334-2.671,0v53.754a3.636,3.636,0,0,1-3.636,3.636h0a4.383,4.383,0,0,1-4.37-4.37V136.152c0-2.67-1.334-2.67-1.334,0v26.394a4.314,4.314,0,0,1-4.3,4.3h-.36A3.346,3.346,0,0,1,141.9,163.5v-58.21a1.168,1.168,0,0,0-1.168-1.168Z"/>
		<circle class="cls-7" cx="150.577" cy="84.676" r="8.902"/>
	</g>
</svg>