<svg xmlns="http://www.w3.org/2000/svg" viewBox="0 0 200 200">
	<defs>
		<style>.cls-1{fill:#ccc;}.cls-2{fill:#fff;}.cls-3{fill:#0066CC;}.cls-4{fill:#909090;}</style>
	</defs>
	<title>Zeichenfläche 3 Kopie 2</title>
	<g id="Ebene_2" data-name="Ebene 2">
		<path class="cls-1" d="M100.375,137.666l1.4-11.347,11.464,1.151,1.257-15.827h7.033l-5.984-17.506V90.169h-.04a26.018,26.018,0,1,0-50.61,9.61l5.439,17.863-3.246,20.025Z"/>
		<path class="cls-2" d="M96.371,112.05H82.613v-1.183a10.194,10.194,0,0,0-3.32-7.511c-.119-.1-.249-.218-.378-.326l-.041-.037a15.754,15.754,0,1,1,21.239,0l-.045.039c-.125.1-.251.213-.376.327a10.169,10.169,0,0,0-3.321,7.508Z"/>
		<polygon class="cls-3" points="90.587 102.412 88.348 101.645 90.965 94.007 84.654 94.007 88.348 83.236 90.587 84.004 87.968 91.64 94.279 91.64 90.587 102.412"/>
		<rect class="cls-4" x="82.604" y="113.923" width="13.777" height="2.366"/>
		<rect class="cls-4" x="86.314" y="118.162" width="6.358" height="2.366"/>
		<rect class="cls-4" x="88.31" y="122.269" width="2.366" height="15.253"/>
		<path class="cls-2" d="M88.021,70.516c.477-.032.963-.049,1.442-.049.36,0,.718.008,1.078.027l-.119,2.363c-.317-.016-.634-.024-.948-.024-.414,0-.862.015-1.288.045Zm6.8,3.1a18.389,18.389,0,0,0-2.176-.509l.4-2.333a20.585,20.585,0,0,1,2.456.575l-.679,2.267M83.078,71.47a20.64,20.64,0,0,1,2.444-.628l.448,2.324a18.533,18.533,0,0,0-2.164.556ZM98.911,75.4a18.734,18.734,0,0,0-1.99-1.02l.949-2.168a21.012,21.012,0,0,1,2.245,1.151l-1.2,2.037m-20.4-1.819a20.773,20.773,0,0,1,2.22-1.194l.993,2.148A18.467,18.467,0,0,0,79.759,75.6Zm23.939,4.538a18.607,18.607,0,0,0-1.689-1.466l1.442-1.877a21.053,21.053,0,0,1,1.9,1.653l-1.657,1.69m-27.868-1.4a21.051,21.051,0,0,1,1.871-1.689l1.479,1.848a18.815,18.815,0,0,0-1.66,1.5Zm30.659,4.881a18.39,18.39,0,0,0-1.291-1.826L105.8,78.3a20.8,20.8,0,0,1,1.455,2.057l-2.012,1.248m-33.728-.891a20.958,20.958,0,0,1,1.414-2.088L74.8,80.07a18.542,18.542,0,0,0-1.255,1.851Zm35.606,4.935a18.438,18.438,0,0,0-.816-2.079l2.148-1a20.931,20.931,0,0,1,.92,2.346l-2.252.729m-37.63-.322a20.686,20.686,0,0,1,.871-2.369l2.168.951a18.39,18.39,0,0,0-.772,2.1Zm38.48,4.7a18.368,18.368,0,0,0-.291-2.215L110,87.362a20.79,20.79,0,0,1,.328,2.5l-2.361.166m-39.334.215a21.03,21.03,0,0,1,.276-2.463l2.332.4A18.6,18.6,0,0,0,71,90.352l0,.065Zm39.1,4.319a18.588,18.588,0,0,0,.252-2.23l0-.066,2.363.116,0,.083a21.265,21.265,0,0,1-.284,2.5Zm-38.759.744a20.86,20.86,0,0,1-.324-2.5l2.361-.161A18.406,18.406,0,0,0,71.3,94.86l-2.324.447m37.466,3.526a18.532,18.532,0,0,0,.777-2.1l2.266.686a20.906,20.906,0,0,1-.878,2.366ZM70.518,100.1a20.917,20.917,0,0,1-.916-2.347l2.253-.724a18.217,18.217,0,0,0,.812,2.08l-2.149.992m33.642,2.571a18.65,18.65,0,0,0,1.258-1.848l2.033,1.211a20.723,20.723,0,0,1-1.419,2.085Zm-31,1.71a21.024,21.024,0,0,1-1.451-2.062l2.015-1.243a18.529,18.529,0,0,0,1.286,1.828l-1.85,1.476m27.865,1.47a18.651,18.651,0,0,0,1.662-1.5l1.686,1.661A20.915,20.915,0,0,1,102.5,107.7Zm-24.277,2.059a21.189,21.189,0,0,1-1.9-1.657l1.66-1.688a18.462,18.462,0,0,0,1.686,1.471l-1.446,1.874"/>
		<path class="cls-1" d="M115.75,134.666l1.4-11.347,10.448,1.049a1,1,0,0,0,1.1-.916l1.176-14.809H135.5a1,1,0,0,0,.946-1.323l-5.532-16.183V87.168h-.04a26.021,26.021,0,1,0-50.61,9.61l5.439,17.863-3.246,20.025Z"/>
		<path class="cls-4" d="M100.749,137.666l1.4-11.347,10.448,1.049a1,1,0,0,0,1.1-.916l1.176-14.809H120.5a1,1,0,0,0,.946-1.323l-5.532-16.183V90.169h-.04a26.021,26.021,0,1,0-50.61,9.61l5.439,17.863-3.246,20.025Z"/>
		<path class="cls-2" d="M96.744,112.05H82.987v-1.183a10.194,10.194,0,0,0-3.32-7.511c-.119-.1-.249-.218-.378-.326l-.041-.037a15.754,15.754,0,1,1,21.239,0l-.045.039c-.125.1-.251.213-.376.327a10.169,10.169,0,0,0-3.321,7.508Z"/>
		<polygon class="cls-3" points="90.961 102.412 88.722 101.645 91.339 94.007 85.028 94.007 88.722 83.236 90.961 84.004 88.341 91.64 94.652 91.64 90.961 102.412"/>
		<rect class="cls-1" x="82.978" y="113.923" width="13.777" height="2.366"/>
		<rect class="cls-1" x="86.687" y="118.162" width="6.358" height="2.366"/>
		<rect class="cls-1" x="88.683" y="122.269" width="2.366" height="15.253"/>
		<path class="cls-2" d="M88.4,70.516c.477-.032.963-.049,1.442-.049.36,0,.718.008,1.078.027L90.8,72.856c-.317-.016-.634-.024-.948-.024-.414,0-.862.015-1.288.045Zm6.8,3.1a18.389,18.389,0,0,0-2.176-.509l.4-2.333a20.585,20.585,0,0,1,2.456.575L95.2,73.612M83.452,71.47a20.64,20.64,0,0,1,2.444-.628l.448,2.324a18.533,18.533,0,0,0-2.164.556ZM99.284,75.4a18.734,18.734,0,0,0-1.99-1.02l.949-2.168a21.012,21.012,0,0,1,2.245,1.151l-1.2,2.037m-20.4-1.819a20.773,20.773,0,0,1,2.22-1.194l.993,2.148A18.467,18.467,0,0,0,80.133,75.6Zm23.939,4.538a18.607,18.607,0,0,0-1.689-1.466l1.442-1.877a21.053,21.053,0,0,1,1.9,1.653l-1.657,1.69m-27.868-1.4a21.051,21.051,0,0,1,1.871-1.689l1.479,1.848a18.815,18.815,0,0,0-1.66,1.5Zm30.659,4.881a18.39,18.39,0,0,0-1.291-1.826l1.847-1.48a20.8,20.8,0,0,1,1.455,2.057l-2.012,1.248m-33.728-.891A20.958,20.958,0,0,1,73.3,78.627l1.876,1.443a18.542,18.542,0,0,0-1.255,1.851Zm35.606,4.935a18.438,18.438,0,0,0-.816-2.079l2.148-1a20.931,20.931,0,0,1,.92,2.346l-2.252.729m-37.63-.322a20.686,20.686,0,0,1,.871-2.369l2.168.951a18.39,18.39,0,0,0-.772,2.1Zm38.48,4.7a18.368,18.368,0,0,0-.291-2.215l2.324-.451a20.79,20.79,0,0,1,.328,2.5l-2.361.166m-39.334.215a21.03,21.03,0,0,1,.276-2.463l2.332.4a18.6,18.6,0,0,0-.244,2.168l0,.065Zm39.1,4.319a18.588,18.588,0,0,0,.252-2.23l0-.066,2.363.116,0,.083a21.265,21.265,0,0,1-.284,2.5Zm-38.759.744a20.86,20.86,0,0,1-.324-2.5l2.361-.161a18.406,18.406,0,0,0,.287,2.216l-2.324.447m37.466,3.526a18.532,18.532,0,0,0,.777-2.1l2.266.686a20.906,20.906,0,0,1-.878,2.366ZM70.891,100.1a20.917,20.917,0,0,1-.916-2.347l2.253-.724a18.217,18.217,0,0,0,.812,2.08l-2.149.992m33.642,2.571a18.65,18.65,0,0,0,1.258-1.848l2.033,1.211a20.723,20.723,0,0,1-1.419,2.085Zm-31,1.71a21.024,21.024,0,0,1-1.451-2.062l2.015-1.243a18.529,18.529,0,0,0,1.286,1.828l-1.85,1.476m27.865,1.47a18.651,18.651,0,0,0,1.662-1.5l1.686,1.661a20.915,20.915,0,0,1-1.874,1.686Zm-24.277,2.059a21.189,21.189,0,0,1-1.9-1.657l1.66-1.688a18.462,18.462,0,0,0,1.686,1.471l-1.446,1.874"/>
	</g>
</svg>