<svg id="svg" xmlns="http://www.w3.org/2000/svg" xmlns:xlink="http://www.w3.org/1999/xlink" width="400" height="400" viewBox="0, 0, 400,400"><g id="svgg"><path id="path0" d="M162.883 15.208 C 100.871 27.529,50.817 66.467,23.873 123.346 C 13.697 144.828,13.491 144.000,29.006 144.000 L 42.013 144.000 47.111 133.333 L 52.209 122.667 78.742 122.667 L 105.274 122.667 103.976 127.556 C 103.262 130.244,102.059 135.044,101.304 138.222 L 99.930 144.000 113.069 144.000 L 126.207 144.000 129.173 133.333 L 132.138 122.667 158.514 122.667 L 184.889 122.667 184.889 133.333 L 184.889 144.000 197.333 144.000 L 209.778 144.000 209.778 133.288 L 209.778 122.576 237.778 123.066 L 265.778 123.556 269.297 133.778 L 272.817 144.000 285.776 144.000 L 298.734 144.000 297.551 139.111 C 296.901 136.422,295.685 132.370,294.851 130.106 C 294.016 127.843,293.333 125.243,293.333 124.329 C 293.333 123.370,304.919 122.667,320.721 122.667 L 348.109 122.667 353.033 133.333 L 357.958 144.000 370.979 144.000 C 386.507 144.000,386.300 144.822,376.157 123.410 C 338.068 43.004,249.398 -1.981,162.883 15.208 M261.533 48.611 C 281.618 56.255,300.763 68.359,316.793 83.548 L 329.778 95.851 305.503 95.925 L 281.228 96.000 275.874 86.512 C 269.613 75.418,250.689 51.452,244.094 46.265 C 237.176 40.822,243.194 41.632,261.533 48.611 M148.114 49.333 C 139.257 58.737,129.594 71.687,122.402 83.794 L 115.150 96.000 92.686 95.917 L 70.222 95.833 83.824 83.028 C 98.840 68.891,116.682 57.450,135.870 49.653 C 151.638 43.246,153.904 43.186,148.114 49.333 M234.147 73.685 C 239.811 79.890,245.890 87.450,247.656 90.484 L 250.868 96.000 230.323 96.000 L 209.778 96.000 209.778 73.628 L 209.778 51.257 216.814 56.829 C 220.684 59.894,228.484 67.479,234.147 73.685 M184.889 74.667 L 184.889 96.000 165.271 96.000 L 145.653 96.000 147.766 92.000 C 154.102 80.005,178.655 53.333,183.361 53.333 C 184.202 53.333,184.889 62.933,184.889 74.667 M16.784 171.445 C 12.565 174.569,27.971 223.986,34.618 228.651 C 44.891 235.859,51.087 230.313,59.504 206.370 C 63.322 195.509,66.980 187.233,67.632 187.978 C 68.285 188.724,71.534 197.333,74.852 207.109 C 82.415 229.393,89.445 236.027,98.845 229.751 C 106.960 224.332,122.174 172.222,116.299 169.968 C 106.593 166.243,103.065 170.328,96.814 192.532 C 91.174 212.563,91.316 212.587,83.672 190.303 C 73.044 159.319,60.012 159.977,49.507 192.026 C 42.836 212.379,42.419 212.762,39.384 201.333 C 30.729 168.741,27.034 163.854,16.784 171.445 M148.696 171.558 C 146.112 174.142,155.264 206.558,163.639 224.487 C 170.698 239.599,182.402 232.795,191.216 208.457 C 195.184 197.498,198.825 188.138,199.306 187.657 C 199.787 187.176,203.247 195.586,206.994 206.346 C 219.677 242.755,230.349 241.191,244.224 200.889 C 253.827 172.995,253.826 172.998,248.000 170.343 C 239.279 166.370,235.797 170.161,230.309 189.607 C 227.592 199.234,224.935 207.838,224.405 208.727 C 223.874 209.616,220.724 202.416,217.404 192.727 C 206.340 160.441,193.522 159.177,182.993 189.333 C 174.315 214.189,175.677 214.783,166.684 182.222 C 163.236 169.739,155.250 165.004,148.696 171.558 M281.673 171.425 C 278.256 173.937,287.055 205.781,296.315 224.419 C 303.796 239.476,315.283 232.116,324.819 206.156 C 330.231 191.422,332.613 186.763,333.421 189.333 C 351.939 248.286,366.906 244.770,384.635 177.302 C 385.702 173.242,381.311 168.889,376.149 168.889 C 371.011 168.889,367.363 173.203,364.872 182.222 C 355.879 214.783,357.241 214.189,348.562 189.333 C 338.033 159.177,325.215 160.441,314.152 192.727 C 310.831 202.416,307.687 209.616,307.164 208.727 C 306.641 207.838,304.045 199.511,301.395 190.222 C 295.080 168.088,291.220 164.409,281.673 171.425 M17.628 261.786 C 72.530 421.361,303.717 431.045,375.973 276.796 C 388.147 250.807,388.370 252.444,372.664 252.444 L 359.310 252.444 354.524 263.111 L 349.737 273.778 321.430 273.778 C 305.861 273.778,293.486 273.178,293.930 272.444 C 294.374 271.711,295.978 266.911,297.495 261.778 L 300.253 252.444 287.107 252.444 L 273.962 252.444 270.969 263.111 L 267.976 273.778 238.877 273.778 L 209.778 273.778 209.778 263.111 L 209.778 252.444 197.333 252.444 L 184.889 252.444 184.889 263.157 L 184.889 273.870 157.865 273.380 L 130.842 272.889 128.181 262.667 L 125.520 252.444 112.538 252.444 C 105.398 252.444,99.556 253.117,99.556 253.940 C 99.556 254.762,100.747 259.362,102.203 264.162 C 103.659 268.962,104.859 273.089,104.870 273.333 C 104.880 273.578,92.598 273.778,77.576 273.778 L 50.263 273.778 45.476 263.111 L 40.690 252.444 27.552 252.444 L 14.414 252.444 17.628 261.786 M117.393 307.247 C 122.294 318.194,135.752 338.399,144.410 347.811 C 163.945 369.046,105.323 338.193,81.115 314.499 C 65.828 299.537,66.089 299.222,93.511 299.573 L 114.075 299.836 117.393 307.247 M184.496 323.111 C 184.769 336.067,184.281 346.667,183.413 346.667 C 176.289 346.667,144.000 309.606,144.000 301.430 C 144.000 300.227,151.166 299.556,164.000 299.556 L 184.000 299.556 184.496 323.111 M252.974 300.208 C 257.498 300.961,223.406 339.498,213.551 344.773 C 209.796 346.782,209.778 346.683,209.778 323.736 L 209.778 300.681 214.667 300.118 C 219.182 299.599,249.744 299.670,252.974 300.208 M330.137 301.521 C 333.294 310.994,278.667 347.076,247.227 356.285 L 237.565 359.115 249.414 347.113 C 263.009 333.342,267.744 327.250,277.429 311.070 L 284.370 299.474 306.930 299.528 C 321.596 299.563,329.716 300.260,330.137 301.521 " stroke="none" fill="#ffffff" fill-rule="evenodd"></path></g></svg>